<?xml version="1.0" encoding="UTF-8"?>
<svg width="24px" height="24px" viewBox="0 0 24 24" version="1.1" xmlns="http://www.w3.org/2000/svg" xmlns:xlink="http://www.w3.org/1999/xlink">
    <!-- Generator: Sketch 63.1 (92452) - https://sketch.com -->
    <title>usdc.3b5e255b</title>
    <desc>Created with Sketch.</desc>
    <g id="crest" stroke="none" stroke-width="1" fill="none" fill-rule="evenodd">
        <g id="Earn-二级页-3" transform="translate(-478.000000, -430.000000)" fill-rule="nonzero">
            <g id="编组-11" transform="translate(410.000000, 169.000000)">
                <g id="编组-21">
                    <g id="编组-15" transform="translate(48.000000, 174.000000)">
                        <g id="usdc.3b5e255b" transform="translate(20.000000, 87.000000)">
                            <g id="usd-coin-usdc-logo-(1)">
                                <path d="M12,24 C18.65004,24 24,18.65004 24,12 C24,5.34995998 18.65004,0 12,0 C5.34995998,0 0,5.34996002 0,12 C0,18.65004 5.34996002,24 12,24 Z" id="路径" fill="#2775CA"></path>
                                <g id="编组" transform="translate(4.200000, 4.800000)" fill="#FFFFFF">
                                    <path d="M10.4678754,8.83328655 C10.4678754,7.34693878 9.57604633,6.83732219 7.79238818,6.62501589 C6.51834666,6.4551097 6.26353837,6.1153993 6.26353837,5.52077863 C6.26353837,4.92615796 6.68825285,4.54404744 7.53757989,4.54404744 C8.30200482,4.54404744 8.7267193,4.79885574 8.93902555,5.43587652 C8.98152759,5.56328067 9.10893174,5.64818278 9.23633589,5.64818278 L9.91575673,5.64818278 C10.0856629,5.64818278 10.2130671,5.52077863 10.2130671,5.35097437 L10.2130671,5.30847233 C10.0431609,4.37414126 9.278736,3.65221838 8.30200482,3.56731625 L8.30200482,2.54808304 C8.30200482,2.37817686 8.17460062,2.25077271 7.96229437,2.20827068 L7.32527358,2.20827068 C7.15536744,2.20827068 7.0279633,2.33567483 6.98546126,2.54808304 L6.98546126,3.52481423 C5.71141974,3.6947204 4.90459474,4.54404744 4.90459474,5.60578266 C4.90459474,7.00722833 5.75392178,7.55924508 7.53757989,7.77165326 C8.7267193,7.98395951 9.10893174,8.23876785 9.10893174,8.91829063 C9.10893174,9.5978134 8.51431107,10.064928 7.70748607,10.064928 C6.60324882,10.064928 6.22103633,9.59771148 6.09363218,8.96069074 C6.05123211,8.79088648 5.92382792,8.7058824 5.79642377,8.7058824 L5.07439896,8.7058824 C4.90459474,8.7058824 4.77719057,8.83328655 4.77719057,9.00319273 L4.77719057,9.04569478 C4.94699481,10.1073281 5.62651763,10.871753 7.0279633,11.0841612 L7.0279633,12.1033944 C7.0279633,12.2731987 7.15536744,12.4006028 7.3676737,12.4431048 L8.00469448,12.4431048 C8.17460062,12.4431048 8.30200482,12.3157007 8.34450681,12.1033944 L8.34450681,11.0841612 C9.61854833,10.871753 10.4678754,9.97992392 10.4678754,8.83328655 L10.4678754,8.83328655 Z" id="路径"></path>
                                    <path d="M5.49911344,13.2924319 C2.18660551,12.1033944 0.487849516,8.40867399 1.71949093,5.13856619 C2.35651169,3.35490805 3.75795736,1.9959644 5.49911344,1.35894364 C5.66901962,1.27404152 5.75392178,1.14663737 5.75392178,0.934229162 L5.75392178,0.33971043 C5.75392178,0.169804253 5.66901962,0.0424001017 5.49911344,0 C5.45661144,0 5.37170929,0 5.3292073,0.0424001017 C1.29477645,1.31644162 -0.913596152,5.60578266 0.360445364,9.64021352 C1.12487027,12.0183904 2.95103042,13.8445505 5.3292073,14.6089754 C5.49911344,14.6938776 5.66901962,14.6089754 5.71141974,14.4390693 C5.75392178,14.3966691 5.75392178,14.3541671 5.75392178,14.269265 L5.75392178,13.6746443 C5.75392178,13.5472402 5.62651763,13.3774359 5.49911344,13.2924319 Z M10.0007608,0.0424001017 C9.83085463,-0.042502025 9.66094844,0.0424001017 9.61854833,0.212306279 C9.57604633,0.254808304 9.57604633,0.297208405 9.57604633,0.382212455 L9.57604633,0.976731189 C9.57604633,1.14663737 9.70345048,1.31644162 9.83085463,1.40144567 C13.1433625,2.59048314 14.8421185,6.28520356 13.6104771,9.55531136 C12.9734564,11.3389695 11.5720107,12.6979131 9.83085463,13.3349339 C9.66094844,13.419836 9.57604633,13.5472402 9.57604633,13.7596484 L9.57604633,14.3541671 C9.57604633,14.5240733 9.66094844,14.6514774 9.83085463,14.6938776 C9.87335662,14.6938776 9.95825878,14.6938776 10.0007608,14.6514774 C14.0351916,13.3774359 16.2435642,9.08809489 14.9695227,5.05366403 C14.2050978,2.63298516 12.3364356,0.806825011 10.0007608,0.0424001017 Z" id="形状"></path>
                                </g>
                            </g>
                        </g>
                    </g>
                </g>
            </g>
        </g>
    </g>
</svg>