<?xml version="1.0" encoding="UTF-8"?>
<svg width="30px" height="30px" viewBox="0 0 30 30" version="1.1" xmlns="http://www.w3.org/2000/svg" xmlns:xlink="http://www.w3.org/1999/xlink">
    <!-- Generator: Sketch 63.1 (92452) - https://sketch.com -->
    <title>discord</title>
    <desc>Created with Sketch.</desc>
    <g id="crest" stroke="none" stroke-width="1" fill="none" fill-rule="evenodd">
        <g id="首页" transform="translate(-1145.000000, -3045.000000)" fill-rule="nonzero">
            <g id="编组-7" transform="translate(50.000000, 2980.000000)">
                <g id="discord" transform="translate(1095.000000, 65.000000)">
                    <path d="M0,15 C0,23.2842712 6.71572875,30 15,30 C23.2842712,30 30,23.2842712 30,15 C30,6.71572875 23.2842712,0 15,0 C6.71572875,0 0,6.71572875 0,15 Z" id="路径" fill="#FFFFFF" opacity="0.5"></path>
                    <path d="M15,8.79999023 C11.6499902,8.79999023 9.3,10.2375 9.3,10.2375 C10.5875098,9.08750977 12.8375098,8.42499023 12.8375098,8.42499023 L12.6249902,8.2125 C10.5125098,8.25 8.60000977,9.7125 8.60000977,9.7125 C6.45,14.1999902 6.58749023,18.075 6.58749023,18.075 C8.33750977,20.3375098 10.9374902,20.175 10.9374902,20.175 L11.8250098,19.05 C10.2624902,18.7125 9.27500977,17.325 9.27500977,17.325 C9.27500977,17.325 11.625,18.9249902 15,18.9249902 C18.375,18.9249902 20.7249902,17.325 20.7249902,17.325 C20.7249902,17.325 19.7375098,18.7125 18.1749902,19.05 L19.0625098,20.175 C19.0625098,20.175 21.6624902,20.3375098 23.4125098,18.075 C23.4125098,18.075 23.55,14.1999902 21.3999902,9.7125 C21.3999902,9.7125 19.4874902,8.25 17.3750098,8.2125 L17.1624902,8.42499023 C17.1624902,8.42499023 19.4124902,9.08750977 20.7,10.2375 C20.7,10.2375 18.3500098,8.79999023 15,8.79999023 M12.4125,13.5375 C13.2249902,13.5375 13.8875098,14.25 13.875,15.1250098 C13.875,15.9875098 13.2249902,16.7124902 12.4125,16.7124902 C11.6124902,16.7124902 10.9625098,15.9875098 10.9625098,15.1250098 C10.9625098,14.25 11.6000098,13.5375 12.4125,13.5375 M17.625,13.5375 C18.4374902,13.5375 19.0875,14.25 19.0875,15.1250098 C19.0875,15.9875098 18.4374902,16.7124902 17.625,16.7124902 C16.8249902,16.7124902 16.1750098,15.9875098 16.1750098,15.1250098 C16.1750098,14.25 16.8125098,13.5375 17.625,13.5375 Z" id="形状" fill="#06060B"></path>
                </g>
            </g>
        </g>
    </g>
</svg>