<?xml version="1.0" encoding="UTF-8"?>
<svg width="30px" height="30px" viewBox="0 0 30 30" version="1.1" xmlns="http://www.w3.org/2000/svg" xmlns:xlink="http://www.w3.org/1999/xlink">
    <!-- Generator: Sketch 63.1 (92452) - https://sketch.com -->
    <title>telegram</title>
    <desc>Created with Sketch.</desc>
    <g id="crest" stroke="none" stroke-width="1" fill="none" fill-rule="evenodd">
        <g id="首页" transform="translate(-1310.000000, -3094.000000)" fill-rule="nonzero">
            <g id="telegram" transform="translate(1310.000000, 3094.000000)">
                <path d="M30,15 C30,23.286416 23.286416,30 15,30 C6.71358398,30 0,23.286416 0,15 C0,6.71358398 6.71358398,0 15,0 C23.286416,0 30,6.71358398 30,15 Z" id="路径" fill="#4186F5"></path>
                <path d="M15,6.85714286 C10.5010714,6.85714286 6.85714286,10.5031071 6.85714286,15 C6.85714286,18.5984643 9.19007143,21.65 12.4248214,22.7255357 C12.8319643,22.8022143 12.98125,22.5504643 12.98125,22.334 C12.98125,22.1406071 12.9744643,21.6282857 12.9710714,20.9497143 C10.706,21.441 10.2282857,19.8572143 10.2282857,19.8572143 C9.85778571,18.9173929 9.32239286,18.6663214 9.32239286,18.6663214 C8.58478571,18.1614643 9.37939286,18.1716429 9.37939286,18.1716429 C10.1970714,18.2286429 10.6266071,19.0103571 10.6266071,19.0103571 C11.3526786,20.2555357 12.5327143,19.8958929 12.9982143,19.6875714 C13.0715,19.161 13.2811786,18.8020357 13.5139286,18.5984643 C11.7055357,18.3948929 9.80485714,17.6946071 9.80485714,14.5745357 C9.80485714,13.6856071 10.1203929,12.9595357 10.6428929,12.3895357 C10.5512857,12.1839286 10.2764643,11.3560714 10.7141429,10.2343929 C10.7141429,10.2343929 11.3961071,10.0158929 12.9534286,11.0690357 C13.6048571,10.8878571 14.297,10.7982857 14.9891429,10.7942143 C15.6812857,10.7982857 16.3734286,10.8878571 17.0248571,11.0690357 C18.572,10.0158929 19.2539643,10.2343929 19.2539643,10.2343929 C19.6916429,11.3560714 19.4168214,12.1839286 19.3353929,12.3895357 C19.8545,12.9595357 20.1700357,13.6856071 20.1700357,14.5745357 C20.1700357,17.70275 18.2666429,18.3915 16.4548571,18.5916786 C16.7398571,18.8359643 17.0045,19.3353929 17.0045,20.0981071 C17.0045,21.1878929 16.9943214,22.06325 16.9943214,22.3278929 C16.9943214,22.5416429 17.1368214,22.7961071 17.5541429,22.7146786 C20.8119643,21.6466071 23.1428571,18.5930357 23.1428571,15 C23.1428571,10.5031071 19.4968929,6.85714286 15,6.85714286" id="路径" fill="#FFFFFF"></path>
            </g>
        </g>
    </g>
</svg>