<?xml version="1.0" encoding="UTF-8"?>
<svg width="30px" height="30px" viewBox="0 0 30 30" version="1.1" xmlns="http://www.w3.org/2000/svg" xmlns:xlink="http://www.w3.org/1999/xlink">
    <!-- Generator: Sketch 63.1 (92452) - https://sketch.com -->
    <title>telegram</title>
    <desc>Created with Sketch.</desc>
    <g id="crest" stroke="none" stroke-width="1" fill="none" fill-rule="evenodd">
        <g id="首页" transform="translate(-1255.000000, -3094.000000)" fill-rule="nonzero">
            <g id="telegram" transform="translate(1255.000000, 3094.000000)">
                <path d="M30,15 C30,23.286416 23.286416,30 15,30 C6.71358398,30 0,23.286416 0,15 C0,6.71358398 6.71358398,0 15,0 C23.286416,0 30,6.71358398 30,15 Z" id="路径" fill="#0EC8E8"></path>
                <g id="twitter" transform="translate(6.857143, 8.571429)" fill="#FFFFFF">
                    <path d="M16.1042945,1.55243079 C15.5127082,1.80762489 14.868923,1.99128731 14.205805,2.06281899 C14.8901892,1.65489509 15.4102439,1.01110997 15.6557715,0.245527659 C15.0235861,0.622518946 14.3082693,0.898979224 13.5639532,1.04204258 C12.9607671,0.398257462 12.1043203,0 11.1550755,0 C9.32811775,0 7.85881837,1.48089911 7.85881837,3.29819044 C7.85881837,3.55338454 7.88975099,3.80857865 7.9400165,4.05410631 C5.20441305,3.91104294 2.76460277,2.60413982 1.14257359,0.60318606 C0.856446873,1.09424138 0.694050626,1.65489509 0.694050626,2.26774759 C0.694050626,3.41225447 1.27597051,4.42143115 2.16335,5.01495077 C1.62202918,4.99368459 1.11164098,4.84095479 0.672784451,4.59542713 L0.672784451,4.63602619 C0.672784451,6.23872248 1.8056916,7.56689179 3.31559004,7.87235139 C3.03912976,7.94388307 2.7433366,7.98448214 2.44754343,7.98448214 C2.23294839,7.98448214 2.02995309,7.96321596 1.82502449,7.93421663 C2.24261484,9.24111976 3.4586534,10.1903645 4.9066866,10.2212971 C3.77377945,11.1086766 2.35474558,11.6306645 0.813914523,11.6306645 C0.537454246,11.6306645 0.282260143,11.6209981 0.0173995979,11.5900655 C1.47896582,12.5277105 3.21312574,13.0690313 5.08068258,13.0690313 C11.1434758,13.0690313 14.4609991,8.04634737 14.4609991,3.68678146 C14.4609991,3.5437181 14.4609991,3.40065474 14.4513327,3.25759138 C15.0931845,2.78780224 15.6557715,2.20588235 16.1042945,1.55243079 Z" id="路径"></path>
                </g>
            </g>
        </g>
    </g>
</svg>