<?xml version="1.0" encoding="UTF-8"?>
<svg width="18px" height="15px" viewBox="0 0 18 15" version="1.1" xmlns="http://www.w3.org/2000/svg" xmlns:xlink="http://www.w3.org/1999/xlink">
    <!-- Generator: Sketch 63.1 (92452) - https://sketch.com -->
    <title>卡片包</title>
    <desc>Created with Sketch.</desc>
    <g id="crest" stroke="none" stroke-width="1" fill="none" fill-rule="evenodd">
        <g id="GP-1" transform="translate(-1216.000000, -33.000000)" fill="#FFFFFF" fill-rule="nonzero">
            <g id="导航2">
                <g id="编组" transform="translate(1200.000000, 22.000000)">
                    <g id="编组-23" transform="translate(16.000000, 9.000000)">
                        <g id="卡片包" transform="translate(0.000000, 2.000000)">
                            <path d="M1.01142857,5.88571429 L1.01142857,8.92857143 L5.47428571,8.92857143 C6.01376988,8.92858683 6.50723213,9.23251095 6.75,9.71428571 C7.20642857,10.6185714 7.81357143,11.0714286 8.57142857,11.0714286 C9.32928571,11.0714286 9.93642857,10.6185714 10.3928571,9.71428571 C10.635625,9.23251095 11.1290873,8.92858683 11.6685714,8.92857143 L16.1428571,8.92857143 L16.1428571,6.44142857 C16.1428571,5.51 16.0714286,5.15 15.8792857,4.79071429 C15.7289032,4.50472292 15.4952771,4.27109682 15.2092857,4.12071429 C14.85,3.92785714 14.49,3.85714286 13.5585714,3.85714286 L3.58428571,3.85714286 C2.65285714,3.85714286 2.29285714,3.92857143 1.93357143,4.12071429 C1.64214286,4.27642857 1.41928571,4.49928571 1.26357143,4.79071429 C1.115,5.06785714 1.03857143,5.345 1.01142857,5.88571429 Z M1.01142857,3.54071429 C1.14928571,3.42642857 1.29928571,3.32571429 1.46142857,3.23857143 C1.92714286,2.99 2.40428571,2.85714286 3.58428571,2.85714286 L13.5585714,2.85714286 C14.7378571,2.85714286 15.2157143,2.99 15.6814286,3.23857143 C15.86,3.33428571 16.0235714,3.44642857 16.1714286,3.575 L16.1714286,3.17714286 C16.1714286,2.445 16.095,2.17928571 15.9521429,1.91214286 C15.8120451,1.64733946 15.5955177,1.43081209 15.3307143,1.29071429 C15.0628571,1.14785714 14.7978571,1.07142857 14.065,1.07142857 L3.11785714,1.07142857 C2.38571429,1.07142857 2.12,1.14785714 1.85214286,1.29071429 C1.58733946,1.43081209 1.37081209,1.64733946 1.23071429,1.91214286 C1.08785714,2.17928571 1.01142857,2.445 1.01142857,3.17714286 L1.01142857,3.54142857 L1.01142857,3.54071429 Z M17.1428571,3.05357143 L17.1428571,11.2321429 C17.1428571,12.1178571 17.0521429,12.5514286 16.79,13.0028571 C16.5461821,13.4184487 16.1837878,13.751742 15.7492857,13.96 C15.2585714,14.2021429 14.7871429,14.2857143 13.8257143,14.2857143 L3.31714286,14.2857143 C2.35571429,14.2857143 1.88428571,14.2021429 1.39357143,13.9607143 C0.958969588,13.7522657 0.596564193,13.4187134 0.352857143,13.0028571 C0.0907142857,12.5514286 0,12.1171429 0,11.2314286 L0,3.05428571 C0,2.16857143 0.0907142857,1.735 0.352857143,1.28357143 C0.596675011,0.867979899 0.959069325,0.53468657 1.39357143,0.326428571 C1.88428571,0.0828571429 2.35571429,0 3.31714286,0 L13.8257143,0 C14.7871429,0 15.2585714,0.0835714286 15.7492857,0.325 C16.1838876,0.5334486 16.546293,0.867000855 16.79,1.28285714 C17.0521429,1.73428571 17.1428571,2.16857143 17.1428571,3.05428571 L17.1428571,3.05357143 Z" id="形状"></path>
                            <path d="M13.4639658,5.65714286 C15.7711868,5.65714286 17.0769203,6.43246322 17.1028043,8.01222219 L17.1031966,8.06033994 L16.1428571,8.06033994 C16.1428571,7.17300842 15.3323041,6.70562268 13.5785192,6.68633656 L13.4639658,6.68571429 L2.92029111,6.68571429 C2.05274052,6.68571429 1.42609172,7.15509535 1.03012884,8.18920747 L1.01142857,8.23887814 L0.0719850765,7.88180173 C0.60212203,6.4496971 1.55564721,5.67614259 2.87139423,5.6574884 L2.92029111,5.65714286 L13.4639658,5.65714286 Z" id="路径-5"></path>
                        </g>
                    </g>
                </g>
            </g>
        </g>
    </g>
</svg>