<?xml version="1.0" encoding="UTF-8"?>
<svg width="50px" height="50px" viewBox="0 0 50 50" version="1.1" xmlns="http://www.w3.org/2000/svg" xmlns:xlink="http://www.w3.org/1999/xlink">
    <!-- Generator: Sketch 63.1 (92452) - https://sketch.com -->
    <title>metamask</title>
    <desc>Created with Sketch.</desc>
    <g id="crest" stroke="none" stroke-width="1" fill="none" fill-rule="evenodd">
        <g id="链接钱包" transform="translate(-892.000000, -270.000000)" fill-rule="nonzero">
            <g id="编组-19" transform="translate(420.000000, 161.000000)">
                <g id="编组-14" transform="translate(40.000000, 95.000000)">
                    <g id="编组-16">
                        <g id="metamask" transform="translate(432.000000, 14.000000)">
                            <path d="M0,25 C0,38.8071187 11.1928813,50 25,50 C38.8071187,50 50,38.8071187 50,25 C50,11.1928813 38.8071187,0 25,0 C11.1928813,0 0,11.1928813 0,25 Z" id="路径" fill="#262626"></path>
                            <g id="编组-15" transform="translate(9.141406, 10.689219)">
                                <polygon id="路径" fill="#E2761B" points="18.073125 9.35296875 20.401875 3.83484375 30.6660937 -2.7533531e-14"></polygon>
                                <path d="M14.0864062,9.4415625 L11.8715625,3.83484375 L1.5946875,0 L14.0864062,9.4415625 Z M26.1351562,21.6801562 L22.78125,26.8185937 L29.9573437,28.7929688 L32.0203125,21.7940625 L26.1351562,21.6801562 Z M0.26578125,21.7940625 L2.31609375,28.7929688 L9.4921875,26.8185937 L6.13828125,21.6801562 L0.26578125,21.7940625 Z" id="形状" fill="#E4761B"></path>
                                <path d="M9.0871875,12.9979688 L7.0875,16.0228125 L14.2129687,16.3392188 L13.9598437,8.6821875 L9.0871875,12.9979688 Z M23.1735938,12.9979688 L18.2376563,8.59359375 L18.073125,16.3392188 L25.1859375,16.0228125 L23.1735938,12.9979688 Z M13.77,24.7303125 L10.074375,21.8446875 L9.4921875,26.8185938 L13.77,24.7303125 Z M22.78125,26.8185938 L22.1864063,21.8446875 L18.4907812,24.7303125 L22.78125,26.8185938 Z" id="形状" fill="#E4761B"></path>
                                <path d="M22.78125,26.8185938 L18.4907812,24.7303125 L18.8325,27.5273438 L18.7945312,28.704375 L22.78125,26.8185938 Z M9.4921875,26.8185938 L13.4789063,28.704375 L13.4535938,27.5273438 L13.77,24.7303125 L9.4921875,26.8185938 Z" id="形状" fill="#D7C1B3"></path>
                                <path d="M9.973125,18.9464063 L12.4917187,17.7946875 L13.5421875,19.996875 L9.973125,18.9464063 Z M19.7690625,17.7946875 L22.3003125,18.9464063 L18.7185938,19.996875 L19.7690625,17.7946875 Z" id="形状" fill="#233447"></path>
                                <path d="M10.0996875,21.6801563 L6.13828125,21.7940625 L9.4921875,26.8185938 L10.0996875,21.6801563 Z M22.78125,26.8185938 L26.1351562,21.7940625 L22.17375,21.6801563 L22.78125,26.8185938 Z M19.7817187,17.7946875 L22.3129687,18.9464063 L25.1859375,16.0228125 L18.073125,16.3392188 L18.73125,19.996875 L19.7817187,17.7946875 Z M14.2129687,16.3392188 L7.0875,16.0228125 L9.973125,18.9464063 L12.504375,17.7946875 L13.5421875,19.996875 L14.2129687,16.3392188 Z" id="形状" fill="#CD6116"></path>
                                <path d="M10.074375,21.8446875 L9.973125,18.9464063 L7.0875,16.0228125 L10.074375,21.8446875 Z M22.1864063,21.8446875 L25.1859375,16.0228125 L22.3129688,18.9464063 L22.1864063,21.8446875 Z M14.2129687,16.3392188 L13.5421875,19.996875 L14.3775,24.3126563 L14.5673437,18.63 L14.2129687,16.3392188 Z M18.073125,16.3392188 L17.7314063,18.6173438 L17.8832813,24.3126563 L18.73125,19.996875 L18.073125,16.3392188 Z" id="形状" fill="#E4751F"></path>
                                <path d="M22.1864062,21.8446875 L22.3129687,18.9464062 L18.73125,19.996875 L17.8832812,24.3126562 L18.4907812,24.7303125 L22.1864062,21.8446875 Z M14.3775,24.3126562 L13.5421875,19.996875 L9.973125,18.9464062 L10.074375,21.8446875 L13.77,24.7303125 L14.3775,24.3126562 Z" id="形状" fill="#F6851B"></path>
                                <polygon id="路径" fill="#C0AD9E" points="13.4535937 27.5273437 13.4789062 28.704375 9.4921875 26.8185937 10.884375 27.9576562 13.7067187 29.919375 18.5540625 29.919375 21.3890625 27.9576562 22.78125 26.8185937 18.7945312 28.704375 18.8325 27.5273437 18.5160937 27.2489062 13.7446875 27.2489062"></polygon>
                                <polygon id="路径" fill="#161616" points="13.4535937 27.5273437 13.7446875 27.2489062 18.5160937 27.2489062 18.8325 27.5273437 18.4907812 24.7303125 17.8832812 24.3126562 14.3775 24.3126562 13.77 24.7303125"></polygon>
                                <path d="M31.2609375,13.2257813 L30.628125,12.7701563 L31.640625,11.84625 L30.8559375,11.23875 L31.8684375,10.4667188 L31.1976563,9.96046875 L32.2734375,4.79671875 L30.6660938,1.95399252e-14 L18.4907813,9.0365625 L23.1735938,12.9979688 L29.7928125,14.934375 L31.2609375,13.2257813 Z M1.0125,13.2257813 L2.46796875,14.934375 L9.0871875,12.9979688 L13.77,9.0365625 L1.5946875,2.22044605e-14 L0,4.79671875 L1.07578125,9.96046875 L0.39234375,10.4667188 L1.40484375,11.23875 L0.6328125,11.84625 L1.6453125,12.7701563 L1.0125,13.2257813 Z" id="形状" fill="#763D16"></path>
                                <path d="M26.1351562,21.7940625 L32.0203125,21.7940625 L29.7928125,14.934375 L23.1735937,12.9979688 L25.1859375,16.0228125 L22.1864062,21.8446875 L26.1351562,21.7940625 Z M10.074375,21.8446875 L7.0875,16.0228125 L9.0871875,12.9979688 L2.46796875,14.934375 L0.26578125,21.7940625 L6.13828125,21.7940625 L10.074375,21.8446875 Z M17.8832812,24.3126563 L17.9085937,18.6426563 L18.073125,16.3392188 L18.4907812,9.0365625 L20.4145312,3.83484375 L11.8715625,3.83484375 L13.77,9.0365625 L14.2129687,16.3392188 L14.3648437,18.6426563 L14.3775,24.3126563 L17.8832812,24.3126563 Z" id="形状" fill="#F6851B"></path>
                            </g>
                        </g>
                    </g>
                </g>
            </g>
        </g>
    </g>
</svg>